<?xml version="1.0" encoding="UTF-8"?>
<svg id="Layer_1" data-name="Layer 1" xmlns="http://www.w3.org/2000/svg" xmlns:xlink="http://www.w3.org/1999/xlink" viewBox="0 0 1092.1 1052.84">
  <defs>
    <style>
      .cls-1 {
        fill: #00b4d8;
      }

      .cls-2 {
        fill: #faa307;
      }
    </style>
  </defs>
  <g id="Logo">
    <path class="cls-1" d="m731.67,1052.84h151.5c29.53,0,41.31-32.6,20.79-57.51L217.42,161.83c-8.9-10.8-22.04-17.34-34.83-17.34H31.09c-29.53,0-41.31,32.6-20.79,57.51l686.53,833.5c8.9,10.8,22.04,17.34,34.83,17.34Z"/>
    <path class="cls-2" d="m81.14,1051.46c-28.18-.19-46.75-28.04-34.97-52.44,69.59-144.06,163.07-340.89,413.77-546.26C722.4,237.77,988.62,132.16,997.58,145.63c9.32,14.01-311.55,196.38-501.92,431.71-121.16,149.77-167.46,318.39-166.14,445.03.19,18.03-19.56,30.58-38.45,30.46l-209.93-1.38Z"/>
    <image width="369" height="512" transform="translate(916.98) rotate(54.47) scale(.82)" xlink:href="K:\Planet Xcape\assets\objects\rocket.png"/>
  </g>
</svg>