<?xml version="1.0" encoding="UTF-8"?>
<svg id="Layer_1" data-name="Layer 1" xmlns="http://www.w3.org/2000/svg" viewBox="0 0 998.4 953.28">
  <defs>
    <style>
      .cls-1 {
        opacity: .58;
      }

      .cls-1, .cls-2 {
        fill: #00b4d8;
      }

      .cls-3 {
        fill: #79f3fe;
      }

      .cls-4 {
        fill: #d00000;
      }

      .cls-5 {
        fill: #cddded;
      }

      .cls-6 {
        fill: #faa307;
      }
    </style>
  </defs>
  <g id="Logo">
    <path class="cls-2" d="m731.67,953.28h151.5c29.53,0,41.31-32.6,20.79-57.51L217.42,62.27c-8.9-10.8-22.04-17.34-34.83-17.34H31.09c-29.53,0-41.31,32.6-20.79,57.51l686.53,833.5c8.9,10.8,22.04,17.34,34.83,17.34Z"/>
    <path class="cls-6" d="m81.14,951.9c-28.18-.19-46.75-28.04-34.97-52.44,69.59-144.06,163.07-340.89,413.77-546.26C722.4,138.21,988.62,32.61,997.58,46.08c9.32,14.01-311.55,196.38-501.92,431.71-121.16,149.77-167.46,318.39-166.14,445.03.19,18.03-19.56,30.58-38.45,30.46l-209.93-1.38Z"/>
  </g>
  <g id="Rocket">
    <g id="Side_Stand" data-name="Side Stand">
      <path class="cls-4" d="m750.81,75.13s-28.96-42.79-115,14.98c0,0-17.1,12.09-29.63,27.83-7.16,9-1.62,21.01,9.55,21.31,19.66.53,47.47,4.41,59.73,20.95,0,0,57.39-14.56,75.35-85.06Z"/>
      <path class="cls-4" d="m857.39,233.89s28.64,43.01-57.41,100.77c0,0-17.67,11.25-36.97,16.88-11.04,3.22-20.05-6.46-16.1-16.91,6.95-18.4,13.89-45.61,3.22-63.21,0,0,35.21-47.6,107.26-37.53Z"/>
    </g>
    <g id="Rocket-2" data-name="Rocket">
      <g id="Body">
        <path class="cls-2" d="m745.52,279.41l-11.08,5.31c-11.3,5.42-24.9,2.8-33.17-6.63-7.32-8.34-16.77-20.29-27.16-36.32-10.9-15.69-18.38-28.96-23.33-38.89-5.59-11.22-2.88-24.8,6.42-33.21l9.11-8.24"/>
        <path class="cls-5" d="m764.74,294.58c-.46-.01-.91-.05-1.37-.1-3.73-.44-7.15-2.26-10.41-4.13-50.41-29.01-86.14-82.22-93.92-139.85-.57-4.21-.98-8.61.44-12.62,1.3-3.67,4-6.64,6.66-9.49,41.39-44.4,88.07-85.61,143.98-109.23C841.35,5.97,875.51-1.1,909.46.14c18.95.69,84.4,7,87.61,31.72,7.9,60.81-20.25,122.34-63.22,166.09-42.97,43.75-99.3,71.91-156.62,93.71-4.02,1.53-8.23,3.06-12.5,2.92Z"/>
        <path class="cls-1" d="m725.11,146.12c16.62-29.3,18.67-53.35,5.39-78.37-22.99,18.38-44.3,39.12-64.35,60.64-2.66,2.85-5.36,5.82-6.66,9.49-1.42,4.01-1.01,8.4-.44,12.62,7.78,57.64,43.51,110.84,93.92,139.85,3.26,1.88,6.67,3.69,10.41,4.13.46.05.91.09,1.37.1,4.26.14,8.47-1.39,12.5-2.92,26.07-9.91,51.92-21.17,76.42-34.59-25.59-17-66.37-16.95-91.01-30.92-31.72-11.08-52.36-53.88-37.54-80.03Z"/>
      </g>
      <path class="cls-2" d="m843.11,155.29l41.65,8.19c17.16,3.37,33.8-7.8,37.18-24.96l8.19-41.65c3.37-17.16-7.8-33.8-24.96-37.18l-41.65-8.19c-17.16-3.37-33.8,7.8-37.18,24.96l-8.19,41.65c-3.37,17.16,7.8,33.8,24.96,37.18Z"/>
      <path class="cls-3" d="m851.02,142.75l30.49,6c12.56,2.47,24.74-5.71,27.21-18.27l6-30.49c2.47-12.56-5.71-24.74-18.27-27.21l-30.49-6c-12.56-2.47-24.74,5.71-27.21,18.27l-6,30.49c-2.47,12.56,5.71,24.74,18.27,27.21Z"/>
    </g>
    <path id="Front_Stand" data-name="Front Stand" class="cls-4" d="m736.36,241.96c-14.46,7.94-29.78,14.34-45.11,20.48-7.36,2.95-15.44,5.88-23.04,3.61-4.17-1.25-7.77-3.99-10.71-7.2-5.85-6.37-9.44-15.43-7.23-23.79,1.59-6.01,5.89-10.89,10.14-15.43,10.1-10.78,20.75-21.05,31.89-30.76,15.55-13.56,38.14-31.61,60.34-27.44,19.31,3.63,31.25,24.05,24.38,42.62-4.92,13.29-16.46,22.98-28.38,30.65-4.01,2.58-8.11,4.99-12.27,7.28Z"/>
  </g>
</svg>